<svg fill="none" viewBox="0 0 1330 390" height="390" width="1330" xmlns="http://www.w3.org/2000/svg">
  <path fill="#EDE7E7" d="M1120.27 389.809c-78.88 0-137.139-64.068-137.139-143.751 0-24.626 5.606-47.85 15.216-68.272 6.603 30.032 21.823 56.259 43.043 76.08l45.05 45.047c31.43 31.433 62.26 46.849 105.11 46.849 23.02 0 44.85-6.006 63.87-16.417l-69.68 41.043c-19.22 11.212-42.84 19.421-65.47 19.421Zm115.13-174.984c-10.42-61.865-61.67-109.314-122.13-109.314-4.81 0-9.61.2-14.22.8 21.83-23.825 52.26-38.84 86.49-38.84 23.23 0 40.04 5.205 55.46 18.219 8.81 17.618 14.02 37.839 14.02 59.662 0 25.427-7.21 49.452-19.62 69.473Z"/>
  <path fill="#EDE7E7" d="M804.305 386.205V105.911l17.618-10.21V285.5l58.662 56.659h170.175l-76.277 44.046H804.305Z"/>
  <path fill="#EDE7E7" d="M576.236 386.205V105.911l17.619-10.21V285.5l58.661 56.659h170.179l-76.28 44.046H576.236ZM312.195 386.205V105.912l17.619-10.211V285.5l58.661 56.659h184.594l-76.28 44.046H312.195Zm95.1-134.941v-44.046h132.939l-76.28 44.046h-56.659Zm0-127.334V79.884h159.767l-76.28 44.046h-83.487ZM193.457 386.205v-133.74H95.154v-44.046h115.922V285.5l58.661 56.659h18.82l-76.28 44.046h-18.82Zm-193.402 0V105.911l17.618-10.21V285.5l58.662 56.659h18.82l-76.28 44.046H.054Zm193.402-252.464v-27.83l17.619-10.21v38.04h-17.619Z"/>
  <path d="M1134.89 291.105c-76.88 0-140.146-64.868-140.146-145.753C994.744 65.268 1058.01 0 1134.89 0s140.15 66.07 140.15 145.352c0 80.485-63.27 145.753-140.15 145.753Zm0-18.82c66.87 0 120.13-57.66 120.13-126.933 0-69.673-53.26-126.532-120.13-126.532s-120.12 57.66-120.12 126.532c0 70.074 53.25 126.933 120.12 126.933ZM821.924 285.499V5.205h18.82V267.48h153.36v18.019h-172.18ZM593.855 285.499V5.205h18.82V267.48h153.361v18.019H593.855ZM329.814 285.499V5.205h180.59v18.019h-161.77v109.315h134.942v18.018H348.634V267.48H516.41v18.019H329.814ZM17.674 285.499V5.205h18.82V133.74h174.582V5.205h18.82V285.5h-18.82v-133.74H36.494v133.74h-18.82Z" fill="currentColor"/>
  
  <path d="M1191.55 345.762c-47.65 0-77.48-19.22-105.11-46.849l-45.05-45.047c25.03 23.224 57.66 37.239 93.5 37.239 76.88 0 140.15-65.269 140.15-145.753 0-39.842-16.22-77.481-43.25-104.51l48.65 48.651c30.04 30.032 49.26 63.066 49.26 112.518 0 79.283-62.27 143.751-138.15 143.751Zm-106.91-84.889c-41.64-20.021-69.87-64.267-69.87-115.521 0-68.872 53.25-126.533 120.12-126.533 46.25 0 85.89 27.029 106.11 66.87-15.41-13.013-32.23-18.219-55.46-18.219-66.87 0-120.12 57.661-120.12 126.533 0 27.028 4.4 47.85 19.22 66.87ZM880.585 342.158l-58.661-56.659h172.18V267.48l56.656 56.659v18.019H880.585Zm-39.841-74.678V5.205l58.661 56.66V267.48h-58.661ZM652.517 342.158l-58.662-56.659h172.181V267.48l56.659 56.659v18.019H652.517Zm-39.842-74.678V5.205l58.662 56.66V267.48h-58.662ZM348.634 132.539V23.224h161.77V5.205l56.659 56.66v18.018H407.296v52.656h-58.662Zm39.842 209.619-58.662-56.659H516.41V267.48l56.659 56.659v18.019H388.476Zm-39.842-74.678V150.557h134.942v-18.018l56.659 56.659v18.019H407.296v60.263h-58.662ZM76.335 342.158l-58.661-56.659h18.82v-133.74h174.582v56.659H95.155v133.74h-18.82ZM36.494 133.74V5.205l58.661 56.66v71.875H36.493Zm233.244 208.418-58.662-56.659h18.82V5.205l58.662 56.66v280.293h-18.82Z" fill="var(--hello-logo-background)"/>
  <path transform="translate(0 -0.5)" fill="currentColor" d="M1191.55 345.762c-47.65 0-77.48-19.22-105.11-46.849l-47.85-47.85c25.03 25.026 59.06 40.042 96.3 40.042 6.61 0 14.22-.401 21.42-1.802v1.601h2.41v-2.002c6.4-1.001 12.01-2.602 17.81-4.404h3.41v-1.202c4.6-1.401 13.81-5.605 16.82-7.207v2.002h4.4v-4.405l4-2.402h3.21v-2.002c8.01-5.005 15.21-11.012 22.02-17.418v6.406h6.61v-6.607l7.01-.2v7.007h6.8v7.008h-6.6v6.607h6.6v-6.607l7.01-.2v7.007h6.81v7.007h-6.61v6.607h6.61v-6.607l7-.2v7.007h6.81v7.008h-6.61v6.607h6.61v-6.607l7.01-.2v7.007h6.81v.2c-4.81 5.806-15.82 15.616-21.43 19.42v-5.205l-5.4.2v5.406h5c-2.2 1.602-4.4 3.003-6.8 4.605v-3.003l-4.81.2v4.805h1.6l-3.8 2.202h-4.61v2.403c-4.2 2.402-13.21 6.006-16.81 7.207v-2.002h-3.41v3.203c-9.41 3.004-20.82 5.206-32.03 6.007v-1.402h-1.8v1.402c-2.2.2-4.21.2-6.41.2Zm-41.84-48.251h1.6v-1.601h-1.6v1.601Zm6.8 7.008h1.81v-1.802h-1.81v1.802Zm7.01 6.807h1.6v-1.602h-1.6v1.602Zm6.81 7.007h1.8v-1.802h-1.8v1.802Zm13.81 13.815h1.8v-1.802h-1.8v1.802Zm-6.8-7.008h1.6v-1.802l-1.6.201v1.601Zm13.81 13.815h1.6v-1.802l-1.6.2v1.602Zm13.41.2h2.41v-2.202h-2.21l-.2 2.202Zm-41.24-41.443h2.2v-2.203h-2.2v2.203Zm6.81 7.007h2.4v-2.403h-2.4v2.403Zm7.01 6.807h2.2v-2.202h-2.2v2.202Zm6.8 7.007h2.2l.21-2.402h-2.41v2.402Zm7.01 6.807h2.2v-2.202h-2.2v2.202Zm6.81 7.008h2.2l.2-2.403h-2.4v2.403Zm-179.19-185.995v-1.802h1.8v1.802h-1.8Zm6.81 6.807v-1.802h1.8v1.802h-1.8Zm6.8 6.807v-1.802h1.81v1.802h-1.81Zm6.81 6.807v-1.802h1.8v1.802h-1.8Zm13.62 13.815v-2.002h2v2.002h-2Zm6.8 6.807v-2.002h2v2.002h-2Zm-13.61-13.815v-1.801h2v1.801h-2Zm158.56 152.16h2.81v-3.003h-2.81v3.003Zm13.82 13.814h2.8v-3.003h-2.8v3.003Zm-48.25-48.45h2.8v-2.803h-2.8v2.803Zm6.81 7.007h2.8l.2-3.003h-3v3.003Zm7 6.807h2.81v-2.803h-2.81v2.803Zm6.81 7.007h2.8l.2-3.003h-3v3.003Zm7.01 6.808h2.8v-2.803h-2.8v2.803Zm13.81 13.814h2.8v-2.803h-2.8v2.803ZM1052.4 167.175v-2.403h2.41v2.403h-2.41Zm6.81 6.807v-2.403h2.4v2.403h-2.4Zm-41.04-41.043v-2.403h2.6v2.403h-2.6Zm6.81 6.807v-2.402h2.6v2.402h-2.6Zm7 7.007v-2.602h2.41v2.602h-2.41Zm6.81 6.808v-2.603h2.4v2.603h-2.4Zm6.81 6.807v-2.603h2.4v2.603h-2.4Zm144.75 137.944h3.4v-3.403h-3.4v3.403Zm13.81 13.815h3.41v-3.404h-3.41v3.404Zm13.82 13.814h3.4v-3.403h-3.4v3.403Zm-34.44-34.636h3.21v-3.404h-3.21v3.404Zm13.82 13.814h3.2v-3.403h-3.2v3.403Zm13.81 13.815h3.2v-3.404h-3.2v3.404Zm13.82 13.814h3.2v-3.403h-3.2v3.403Zm-200.21-206.216v-3.003h3v3.003h-3Zm6.8 6.807v-3.003h3.01v3.003h-3.01Zm6.81 6.807v-3.003h3v3.003h-3Zm6.81 6.808v-3.004h3v3.004h-3Zm6.8 6.807v-3.003h3.01v3.003H1052Zm-34.03-34.236v-3.003h3v3.003h-3Zm41.04 41.043v-3.003h3v3.003h-3Zm6.81 6.807v-3.003h3l-.8 3.003h-2.2Zm124.33 117.323h3.8v-4.004h-3.8v4.004Zm6.81 6.807h4v-3.804h-4v3.804Zm7 7.007h3.81v-4.004h-3.81v4.004Zm6.81 6.808h4v-3.804h-4v3.804Zm7.01 7.007h3.8v-4.004h-3.8v4.004Zm6.81 6.807h4v-3.804h-4v3.804Zm7 7.007h3.81v-4.004h-3.81v4.004Zm6.81 6.807h4v-3.803h-4v3.803Zm-213.82-219.83v-3.604h3.4v3.604h-3.4Zm40.84 40.843v-3.404h3.6v3.404h-3.6Zm-34.04-34.036v-3.604h3.61v3.604h-3.61Zm6.81 6.807v-3.603h3.6v3.603h-3.6Zm6.81 6.808v-3.604h3.6v3.604h-3.6Zm6.8 6.606v-3.603h3.61v3.603h-3.61Zm6.81 6.808v-3.604h3.61v3.604h-3.61Zm-38.04-40.243 1-3.203v3.203h-1Zm190 185.194h4.41v-4.604l-4.41.2v4.404Zm13.82 13.815h4.4v-4.605l-4.4.2v4.405Zm13.81 13.814h4.4v-4.604h-4.4v4.604Zm-34.44-34.636h4.41v-4.405h-4.41v4.405Zm13.82 13.815h4.4v-4.405h-4.4v4.405Zm13.81 13.814h4.41v-4.405h-4.41v4.405Zm13.82 13.815h4.4v-4.405h-4.4v4.405Zm-173.18-178.788v-4.204h3.4l-1.6 4.204h-1.8Zm-41.05-41.043v-4.004h4.21v4.004h-4.21Zm34.24 34.236v-4.204h4v4.204h-4Zm-41.04-41.043v-3.203l.4-1.001h3.8v4.204h-4.2Zm13.81 13.614v-4.004h4v4.004h-4Zm6.81 6.807v-4.004h4v4.004h-4Zm6.8 6.808v-4.005h4.01v4.005h-4.01Zm6.81 6.807v-4.004h4.01v4.004h-4.01Zm151.96 144.551h5.01v-5.005h-5.01v5.005Zm13.81 13.815h5.01V287.1h-5.01v5.006ZM1238 305.92h5v-5.005h-5v5.005Zm13.81 13.815h5.01v-5.006h-5.01v5.006Zm-34.43-34.637h4.8v-5.005l-4.8.2v4.805Zm13.81 13.815h4.81v-5.005l-4.81.2v4.805Zm13.82 13.814h4.8v-5.005l-4.8.2v4.805Zm-214.23-219.63v-4.605h4.61v4.605h-4.61Zm6.81 6.807V95.3h4.6v4.605h-4.6Zm13.61 13.815v-4.805h4.81v4.805h-4.81Zm6.81 6.807v-4.805h4.81v4.805h-4.81Zm13.82 13.614v-4.605h4.6v4.605h-4.6Zm-27.43-27.429v-4.604h4.8v4.604h-4.8Zm20.62 20.622v-4.805h4.6v4.805h-4.6Zm158.96 151.158h5.41v-5.405h-5.41v5.405Zm-7-7.007h5.6v-5.406h-5.4l-.2 5.406Zm13.81 13.815h5.61v-5.406h-5.41l-.2 5.406Zm7.01 7.007h5.4V286.7l-5.4.2v5.406Zm6.81 6.807h5.6v-5.406h-5.4l-.2 5.406Zm7 7.007h5.41v-5.606l-5.41.201v5.405Zm6.81 6.808h5.61v-5.406h-5.61v5.406ZM1051 100.305v-5.206h5.21v5.206H1051Zm6.81 6.807v-5.206h5.21v5.206h-5.21Zm6.81 6.807v-5.205h5.2v5.205h-5.2Zm6.8 6.807v-5.205h5.21v5.205h-5.21Zm6.81 6.807v-5.205h5.21v5.205h-5.21Zm-40.84-40.843v-5.405h5.2v5.405h-5.2Zm6.81 6.808v-5.406h5.2v5.406h-5.2Zm-11.82-13.815 3.21-5.205h.2v5.205h-3.41Zm225.84 219.83h6.01v-6.206h-6.01v6.206Zm13.81 13.815h6.01v-6.207h-6.01v6.207Zm-48.25-48.451h6.01v-6.006h-6.01v6.006Zm6.81 7.008h6.01l.2-6.207h-6.21v6.207Zm7.01 6.807h6.01v-6.007h-6.01v6.007Zm6.81 7.007h6l.2-6.207h-6.2v6.207Zm7 6.807h6.01V286.5h-6.01v6.006Zm13.82 13.815h6v-6.007h-6v6.007ZM1036.99 73.276v-1l3.4-4.806h2.4v5.806h-5.8Zm6.81 6.808v-5.807h5.8v5.806h-5.8Zm6.8 6.807v-5.806h5.81v5.806h-5.81Zm7.01 6.807v-5.806h5.81v5.806h-5.81Zm6.81 6.807v-5.806h5.8v5.806h-5.8Zm6.8 6.807v-5.806h5.81v5.806h-5.81Zm6.81 6.807v-5.806h5.81v5.806h-5.81Zm6.81 6.807v-5.806h5.8v1.602l-3 4.204h-2.8Zm179.99 171.78h6.6v-6.607h-6.4l-.2 6.607Zm13.81 13.815h6.61v-6.607h-6.41l-.2 6.607Zm-41.24-41.444h6.41v-6.607h-6.41v6.607Zm13.81 13.815h6.41v-6.607h-6.41v6.607ZM1070.82 94.098v-6.406h6.41v6.406h-6.41Zm6.81 6.807v-6.406h6.41v6.406h-6.41Zm13.82 13.615v-6.407h6a80.55 80.55 0 0 0-5.2 6.407h-.8Zm-27.43-27.43v-6.206h6.4v6.207h-6.4Zm20.62 20.622v-6.406h6.21v6.406h-6.21Zm-41.04-41.043v-3.403l2.6-3.003h3.8v6.407h-6.4Zm6.8 6.808V67.07h6.41v6.407h-6.41Zm6.81 6.807v-6.407h6.41v6.407h-6.41Zm173.38 171.379c2.2-2.202 4.41-4.404 6.41-6.807v6.807h-6.41Zm61.87 48.051v-6.407h5.6c-1.6 2.202-3.4 4.204-5.4 6.407h-.2Zm-48.25-48.251v-6.607h6.4v6.407l-6.4.2Zm6.8 6.807v-6.406h6.61v6.406h-6.61Zm7.01 7.008v-6.607h6.41v6.406l-6.41.201Zm6.81 6.807v-6.407h6.6v6.407h-6.6Zm13.81 13.814v-6.407h6.61v6.407h-6.61Zm-41.24-41.443c2-2.002 3.8-4.205 5.6-6.407h.81v6.407h-6.41Zm34.43 34.436v-6.407h6.41v6.407h-6.41Zm13.82 13.814V286.3h6.41v6.406h-6.41ZM1063.82 66.87h6.4v-6.407h-6.4v6.407Zm7 6.807h6.41V67.27h-6.41v6.407Zm6.81 6.807h6.41v-6.407h-6.41v6.407Zm6.81 6.807h6.41v-6.407h-6.41v6.407Zm6.81 6.807h6.4v-6.406h-6.4v6.406Zm208.41 197.007V286.5h3.41c-1 1.602-2.2 3.203-3.41 4.605Zm-55.25-53.857v-1.201l3.6-4.805h2.4v6.006h-6Zm7 7.008v-6.007h6.01v5.806l-6.01.201Zm6.81 6.807v-6.007h6.01v6.007h-6.01Zm7.01 7.007v-6.006h6v5.806l-6 .2Zm6.8 6.807v-6.006h6.01v6.006h-6.01Zm7.01 7.008v-6.007h6.01v5.806l-6.01.201Zm6.81 6.807v-6.007h6.01v6.007h-6.01Zm7.01 7.007v-6.006h6v5.806l-6 .2ZM1084.64 73.477h5.8V67.47h-5.8v6.007Zm6.81 6.807h5.8v-6.007h-5.8v6.007Zm6.8 6.807h6.01v-5.806h-6.01v5.806Zm6.81 6.807h6.01v-5.806h-6.01v5.806Zm-40.84-41.043h5.8v-5.806h-5.8v5.806Zm6.8 6.807h5.81v-5.806h-5.81v5.806Zm6.81 6.807h5.81v-5.806h-5.81v5.806Zm228.84 214.825v-1.401h.8l-.8 1.401Zm-55.06-51.253v-4.205l.8-1.201h4.61v5.406h-5.41Zm13.82 13.814v-5.406h5.4v5.406h-5.4Zm13.81 13.815v-5.406h5.41v5.406h-5.41Zm13.82 13.814v-5.406h5.4v5.406h-5.4Zm-34.44-34.436v-5.606h5.41v5.406l-5.41.2Zm13.82 13.814v-5.605h5.4v5.405l-5.4.2Zm13.81 13.815v-5.606h5.41v5.406l-5.41.2Zm13.81 13.814v-5.605h5.41v5.405l-5.41.2ZM1071.22 45.848h5.41v-5.406h-5.41v5.406Zm6.81 6.807h5.41v-5.406h-5.41v5.406Zm7.01 6.807h5.2v-5.206h-5.2v5.206Zm6.81 6.807h5.2v-5.205h-5.2v5.205Zm6.8 6.807h5.21v-5.205l-.2-.4h-5.01v5.605Zm6.81 6.807h5.21v-5.205h-5.21v5.205Zm6.81 6.807h5.2v-5.205h-5.2v5.205Zm146.55 136.143v-4.805h5.01v4.805h-5.01Zm7.01 7.007v-5.005h4.8v5.005h-4.8Zm6.81 6.808v-4.805h5v4.805h-5Zm7 7.007v-5.005h4.81v5.005h-4.81Zm6.81 6.807v-4.805h5.01v4.805h-5.01Zm7.01 7.007v-5.005h4.8v4.805l-4.8.2Zm6.8 6.808v-4.806h5.01v4.806h-5.01Zm7.01 7.007v-5.005h4.81v4.805l-4.81.2ZM1078.43 38.64h4.61v-4.605h-4.61v4.605Zm20.42 20.622h4.81v-4.805h-4.81v4.805Zm6.81 6.807h4.81v-4.805h-4.81v4.805Zm6.81 6.807h4.8v-4.805h-4.8v4.805Zm-27.23-27.429h4.8v-4.605h-4.8v4.605Zm6.81 6.807h4.8V47.65h-4.8v4.604Zm27.43 27.43h4.6v-4.806h-4.6v4.805Zm195 184.392v-4.404h3.6c-.6 1.401-1.2 2.803-2 4.404h-1.6Zm-48.45-48.45v-4.405h4.4v4.405h-4.4Zm7.01 7.007v-4.405h4.4v4.405h-4.4Zm6.8 6.807v-4.405h4.41v4.405h-4.41Zm7.01 7.007v-4.404h4.41v4.404h-4.41Zm6.81 6.808v-4.405h4.4v4.405h-4.4Zm7 7.007v-4.405h4.41v4.405h-4.41Zm6.81 6.807v-4.405h4.41v4.405h-4.41Zm-46.45-48.251 2.01-4.404h.6v4.404h-2.61ZM1092.45 38.44h4v-4.204h-4v4.204Zm6.8 6.807h4.01v-4.204h-4.01v4.204Zm6.81 6.807h4.01V47.85h-4.01v4.204Zm6.81 6.807h4v-4.204h-4v4.204Zm6.81 6.807h4.2v-4.004h-4.2v4.004Zm6.8 6.808h4.21V68.47h-4.21v4.005Zm188.2 177.385v-3.804h3.8v3.804h-3.8Zm-48.25-48.25v-4.004h3.8v4.004h-3.8Zm6.81 6.807v-3.804h4l-.2 3.804h-3.8Zm7 7.007v-4.004h3.81v4.004h-3.81Zm6.81 6.807v-3.804h4l-.2 3.804h-3.8Zm7.01 7.008v-4.004h3.8v4.004h-3.8Zm6.81 6.807v-3.804h4l-.2 3.804h-3.8Zm7 7.007v-4.004h3.81v4.004h-3.81Zm-187.99-191.2h3.6V48.25h-3.6v3.604Zm6.8 6.807h3.61v-3.604h-3.61v3.604Zm-20.42-20.622h3.61v-3.403h-3.61v3.403Zm6.81 6.808h3.6v-3.404h-3.6v3.404Zm20.62 20.621h3.4v-3.604h-3.4v3.604Zm6.81 6.807h3.4v-3.603h-3.4v3.603Zm-41.05-41.043h3.61V27.63h-3.61v3.603Zm-1.6 76.48v-6.606h-6.8v-6.808h-6.81v-6.807h-6.81v-6.807h-6.81v-6.807h-6.8V67.07h-6.81v-7.007h6.41v-6.407h-6.41v6.407h-6.81v-4.205l2.41-2.603h4v-3.804l4-3.403h2.61v-2.202c6.8-5.406 14.21-10.011 22.22-13.815v1.602h4.2v-3.404c5.41-2.402 11.22-4.404 17.02-5.806v1.802h3v-2.603c8.21-1.802 16.62-2.803 25.23-2.803 46.25 0 85.29 25.627 105.91 66.67-15.21-12.613-32.03-18.019-55.26-18.019-10.01 0-20.42 1.402-28.23 3.604v-2.202h-3v3.003c-5.4 1.401-11.41 3.604-16.82 6.206v-2.803h-4.2v4.005h1.6l-4.6 2.402h-4.01v2.403c-8.01 4.605-15.21 10.41-21.82 16.617v-6.206h-6.41v6.406h6.21c-2.2 2.203-4.41 4.405-6.41 6.807Zm224.04 134.942v-3.203h3l-.8 3.203h-2.2Zm-48.25-48.251V191h3.2v3.203l-3.2.2Zm6.8 6.807v-3.203h3.41v3.203h-3.41Zm7.01 7.008v-3.404h3.2v3.204l-3.2.2Zm6.81 6.807v-3.203h3.4v3.203h-3.4Zm13.81 13.814v-3.203h3.41v3.203h-3.41Zm-6.8-7.007v-3.203h3.2v3.203h-3.2Zm13.81 13.815v-3.204h3.2v3.204h-3.2Zm-46.05-48.251 1-3.203v3.203h-1ZM1113.47 31.032h3V28.03h-3v3.003Zm6.81 6.807h3v-3.003h-3v3.003Zm6.8 6.807h3.01v-3.003h-3.01v3.003Zm6.81 6.807h3V48.45h-3v3.003Zm6.81 6.808h3v-3.004h-3v3.004Zm6.8 6.807h3.01v-3.003h-3.01v3.003Zm126.34 115.12v-2.803h2.8v2.803h-2.8Zm7 7.008v-2.803h2.81v2.603l-2.81.2Zm6.81 6.807V191.2h2.8v2.803h-2.8Zm7.01 7.007v-2.803h2.8v2.603l-2.8.2Zm6.81 6.807v-2.803h2.8v2.803h-2.8Zm7 7.008v-2.803h2.81v2.603l-2.81.2Zm6.81 6.807v-2.803h2.8v2.803h-2.8Zm7.01 7.007v-2.803h2.8v2.603l-2.8.2ZM1120.48 23.825h2.4v-2.403h-2.4v2.403Zm6.8 6.807h2.41v-2.403h-2.41v2.403Zm6.81 7.007h2.6v-2.603h-2.6v2.603Zm7.01 6.807h2.4v-2.402h-2.4v2.402Zm6.8 6.807h2.41v-2.402h-2.41v2.402Zm6.81 6.807h2.4v-2.402h-2.4v2.402Zm6.81 6.808h2.4v-2.403h-2.4v2.403Zm119.52 108.113v-2.202h2.21v2.202h-2.21Zm13.82 13.814v-2.202h2.2v2.202h-2.2Zm13.81 13.815v-2.202h2.21v2.202h-2.21Zm13.82 13.814v-2.202h2.2v2.202h-2.2Zm-48.25-48.25v-2.203l2.2-.2v2.403h-2.2Zm13.81 13.814v-2.202l2.2-.2v2.402h-2.2Zm13.82 13.815V191.6l2.2-.2v2.403h-2.2Zm13.81 13.814v-2.402h2.2v2.402h-2.2ZM1134.49 23.624h1.8v-1.801h-1.8v1.801Zm6.81 6.808h1.8V28.63h-1.8v1.802Zm6.81 6.807h1.8v-1.802h-1.8v1.802Zm6.8 6.807h1.8v-1.802h-1.8v1.802Zm6.81 6.807h1.8V49.05h-1.8v1.802Zm13.61 13.814h2.01v-2.002h-2.01v2.002Zm-6.8-7.007h2v-1.802h-2v1.802Zm112.91 101.306v-1.802h1.61v1.802h-1.61Zm6.81 6.807v-1.601h1.8v1.601h-1.8Zm7.01 7.008v-1.802h1.6v1.802h-1.6Zm6.81 6.807v-1.602h1.8v1.602h-1.8Zm7 7.007v-1.802h1.61v1.802h-1.61Zm6.81 6.807v-1.601h1.8v1.601h-1.8Zm7.01 7.008v-1.802h1.8v1.802h-1.8Zm-48.05-48.451c0-.601 0-1.201.2-1.602h1.2v1.602h-1.4ZM880.585 342.158l-58.661-56.659h172.18l56.656 56.659H880.585Zm-21.022-42.244h2.002v-2.002h-2.002v2.002Zm7.408 7.608h2.202v-2.202h-2.202v2.202Zm7.808 7.608h2.002v-2.002h-2.002v2.002Zm7.408 7.608h2.202v-2.202h-2.202v2.202Zm7.808 7.608h2.002v-2.002h-2.002v2.002Zm7.408 7.608h2.202v-2.202h-2.202v2.202Zm-45.448-45.648h2.002v-2.202h-2.002v2.202Zm14.816.2h2.803v-2.602h-2.803v2.602Zm15.216 15.216h2.803v-2.602h-2.803v2.602Zm15.216 15.216h2.803v-2.603h-2.803v2.603Zm15.216 15.216h2.803v-2.603h-2.803v2.603Zm-37.84-38.24h2.403v-2.402h-2.403v2.402Zm15.216 15.216h2.402v-2.403h-2.402v2.403Zm15.216 15.216h2.402v-2.403h-2.402v2.403Zm-23.224-37.439h3.403v-3.404h-3.403v3.404Zm7.608 7.407h3.203v-3.203h-3.203v3.203Zm7.608 7.809h3.403v-3.404h-3.403v3.404Zm7.608 7.407h3.203v-3.203h-3.203v3.203Zm7.607 7.809h3.404v-3.404h-3.404v3.404Zm7.608 7.407h3.204v-3.203h-3.204v3.203Zm7.608 7.809h3.404v-3.404h-3.404v3.404Zm7.008-7.408h4.204v-4.004h-4.204v4.004Zm-37.84-37.84h4.205v-4.204h-4.205v4.204Zm7.608 7.408h4.004v-4.004h-4.004v4.004Zm7.608 7.808h4.204v-4.204h-4.204v4.204Zm7.608 7.408h4.004v-4.004h-4.004v4.004Zm7.608 7.808h4.204v-4.204h-4.204v4.204Zm15.216 15.216h4.204v-4.204h-4.204v4.204Zm-23.425-37.64h5.006v-5.005h-5.006v5.005Zm15.216 15.016h5.006v-4.805h-5.006v4.805Zm-22.623-22.824h4.805v-4.805h-4.805v4.805Zm15.216 15.216h4.805v-4.805h-4.805v4.805Zm15.215 15.216h4.806v-4.805h-4.806v4.805Zm7.408 7.608h5.006v-5.005h-5.006v5.005Zm7.808 7.608h4.806v-4.805h-4.806v4.805Zm-23.224-37.439h5.606v-5.606h-5.606v5.606Zm15.216 15.216h5.606v-5.806h-5.606v5.806Zm-22.824-23.024h5.606v-5.606h-5.606v5.606Zm15.216 15.216h5.606v-5.606h-5.606v5.606Zm15.216 15.216h5.606v-5.606h-5.606v5.606Zm7.608 7.608h5.606v-5.606h-5.606v5.606Zm7.608 7.608h5.606v-5.606h-5.606v5.606Zm-22.824-37.84h5.606v-5.606h-5.606v5.606Zm15.216 15.216h5.606v-5.806h-5.606v5.806Zm22.624 22.624h5.806v-5.606h-5.806v5.606Zm-45.448-45.648h5.606v-5.606h-5.606v5.606Zm15.216 15.216h5.606v-5.606h-5.606v5.606Zm15.216 15.216h5.606v-5.606h-5.606v5.606Zm7.608 7.608h5.606v-5.606h-5.606v5.606Zm-15.216-30.232h5.606v-5.606h-5.606v5.606Zm37.837 37.84h5.61v-5.606h-5.61v5.606Zm-22.621-22.624h5.606v-5.806h-5.606v5.806Zm7.408 7.408h5.806v-5.606h-5.806v5.606Zm-30.232-30.432h5.606v-5.606h-5.606v5.606Zm15.216 15.216h5.606v-5.606h-5.606v5.606Zm22.824 22.824h5.605v-5.606h-5.605v5.606Zm-15.016-30.232h5.606v-5.606h-5.606v5.606Zm37.841 37.84h5.6v-5.606h-5.6v5.606Zm-22.625-22.624h5.605v-5.806h-5.605v5.806Zm7.405 7.408h5.81v-5.606h-5.81v5.606Zm-30.229-30.432h5.606v-5.606h-5.606v5.606Zm15.216 15.216h5.606v-5.606h-5.606v5.606Zm22.823 22.824h5.61v-5.606h-5.61v5.606ZM858.162 166.774v-2.002h2.002v2.002h-2.002Zm-14.215-14.415v-2.002h2.002v2.002h-2.002Zm7.207 7.208v-2.002h2.003v2.002h-2.003Zm14.215 14.215v-2.002h2.002v2.002h-2.002Zm7.208 7.207v-2.002h2.002v2.002h-2.002Zm7.007 7.008v-2.002h2.002v2.002h-2.002Zm7.208 7.207v-2.002h2.002v2.002h-2.002Zm7.207 7.208v-2.002h2.002v2.002h-2.002Zm101.106 99.304h5.605v-5.606h-5.605v5.606Zm37.835 37.84h5.61v-5.606h-5.61v5.606Zm-22.62-22.624h5.61v-5.806h-5.61v5.806Zm7.41 7.408h5.81v-5.606h-5.81v5.606Zm-30.233-30.432h5.606v-5.606h-5.606v5.606Zm15.213 15.216h5.61v-5.606h-5.61v5.606Zm22.83 22.824h5.6v-5.606h-5.6v5.606ZM843.546 138.545v-2.803h2.803v2.803h-2.803Zm7.208 7.207v-2.803h2.803v2.803h-2.803Zm7.007 7.008v-2.803h2.803v2.803h-2.803Zm7.208 7.207v-2.803h2.803v2.803h-2.803Zm7.208 7.208v-2.803h2.802v2.803h-2.802Zm7.007 7.007v-2.803h2.803v2.803h-2.803Zm7.207 7.208v-2.803h2.803v2.803h-2.803Zm7.208 7.007v-2.803h2.803v2.803h-2.803Zm-50.453-63.667v-3.603h3.604v3.603h-3.604Zm14.215 14.215v-3.604h3.604v3.604h-3.604Zm7.207 7.208v-3.604h3.604v3.604h-3.604Zm14.215 14.215v-3.604h3.604v3.604h-3.604Zm7.208 7.007v-3.403h3.604v3.403h-3.604Zm-35.637-35.637v-3.604h3.603v3.604h-3.603Zm21.422 21.422v-3.604h3.604v3.604h-3.604Zm21.423 21.423v-3.604h3.603v3.604h-3.603Zm-36.238-49.452v-4.405h4.404v4.405h-4.404Zm21.422 21.422v-4.404h4.405v4.404h-4.405Zm-35.637-35.837v-4.405h4.404v4.405h-4.404Zm7.207 7.207v-4.404h4.405v4.404h-4.405Zm14.215 14.215v-4.404h4.405v4.404h-4.405Zm7.208 7.208v-4.405h4.404v4.405h-4.404Zm14.215 14.215v-4.405h4.404v4.405h-4.404Zm7.207 7.207v-4.404h4.405v4.404h-4.405Zm-50.453-63.867v-5.205h5.206V96.9h-5.206Zm7.208 7.208v-5.206h5.205v5.206h-5.205Zm7.207 7.007v-5.005h5.006v5.005h-5.006Zm7.008 7.208v-5.206h5.205v5.206h-5.205Zm7.207 7.207v-5.205h5.206v5.205h-5.206Zm7.008 7.008v-5.206h5.205v5.206h-5.205Zm7.207 7.207v-5.205h5.206v5.205h-5.206Zm7.208 7.007v-5.005h5.005v5.005h-5.005Zm-50.453-63.666V77.08h6.006v6.007h-6.006Zm21.422 21.422v-6.006h6.007v6.006h-6.007Zm7.208 7.008v-5.807h5.806v5.807h-5.806Zm21.422 21.422v-5.806h5.806v5.806h-5.806Zm-42.845-42.845v-5.806h6.007v5.806h-6.007Zm7.208 7.208v-6.007h5.806v6.007h-5.806Zm21.422 21.422v-6.006h5.806v6.006h-5.806Zm7.008 7.007v-5.806h6.006v5.806h-6.006Zm7.207-6.206v-6.607h6.207v6.607h-6.207Zm-50.453-50.453v-6.607h6.607v6.607h-6.607Zm7.208 7.208v-6.607h6.607v6.607h-6.607Zm7.207 7.207V76.88h6.607v6.607h-6.607Zm7.208 7.208v-6.607h6.607v6.607h-6.607Zm7.208 7.207v-6.607h6.607v6.607h-6.607Zm7.207 7.208v-6.607h6.607v6.607h-6.607Zm7.208 7.207v-6.607h6.607v6.607h-6.607Zm-36.238-57.46h6.807V48.25h-6.807v6.607Zm7.207 7.208h6.807v-6.607h-6.807v6.607Zm7.208 7.207h6.807v-6.607h-6.807v6.607Zm7.207 7.208h6.808v-6.607h-6.808v6.607Zm7.208 7.207h6.807V77.08h-6.807v6.607Zm7.207 7.208h6.808v-6.607h-6.808v6.607Zm7.008 14.615v-7.207h-7.208v-7.208h-7.207v-7.207h-7.208V76.68h-7.207v-7.208h-7.208v-7.207h-7.207v-7.208h-6.808V47.65h6.607v-6.607h-7.407V5.205l58.661 56.66v29.63h-7.608v6.608h7.208v7.407h-7.408Zm-42.645-65.468h6.006v-5.806h-6.006v5.806Zm-7.007-7.208h5.806v-5.806h-5.806v5.806Zm14.415 14.415h5.806v-5.806h-5.806v5.806Zm7.207 7.208h5.807V48.65h-5.807v5.806Zm7.208 7.207h5.806v-5.806h-5.806v5.806Zm7.208 7.208h5.806v-5.806h-5.806v5.806Zm7.207 7.207h5.806v-5.806h-5.806v5.806Zm7.208 7.208h6.006V77.48h-6.006v5.806Zm-43.045-58.06h5.205V20.42h-5.205v4.805Zm43.445 43.244h4.805v-4.805h-4.805v4.805Zm-50.453-50.453h5.005v-4.805h-5.005v4.806Zm14.415 14.416h5.006v-4.805h-5.006v4.805Zm7.208 7.207h5.005v-4.805h-5.005v4.805Zm7.207 7.208h5.006v-4.805h-5.006v4.805Zm7.208 7.207h5.005v-4.805h-5.005v4.805Zm7.208 7.208h5.005v-4.805h-5.005v4.805ZM652.517 342.158l-58.662-56.659h172.181l56.659 56.659H652.517Zm-21.022-42.244h2.002v-2.002h-2.002v2.002Zm7.408 7.608h2.202v-2.202h-2.202v2.202Zm7.808 7.608h2.002v-2.002h-2.002v2.002Zm7.408 7.608h2.202v-2.202h-2.202v2.202Zm7.808 7.608h2.002v-2.002h-2.002v2.002Zm7.408 7.608h2.202v-2.202h-2.202v2.202Zm-45.448-45.648h2.002v-2.202h-2.002v2.202Zm14.815.2h2.803v-2.602h-2.803v2.602Zm15.216 15.216h2.803v-2.602h-2.803v2.602Zm15.216 15.216h2.803v-2.603h-2.803v2.603Zm15.216 15.216h2.803v-2.603h-2.803v2.603Zm-37.839-38.24h2.402v-2.402h-2.402v2.402Zm15.216 15.216h2.402v-2.403h-2.402v2.403Zm15.216 15.216h2.402v-2.403h-2.402v2.403Zm-23.225-37.439h3.404v-3.404h-3.404v3.404Zm7.608 7.407h3.204v-3.203h-3.204v3.203Zm7.608 7.809h3.404v-3.404h-3.404v3.404Zm7.608 7.407h3.203v-3.203h-3.203v3.203Zm7.608 7.809h3.404v-3.404h-3.404v3.404Zm7.608 7.407h3.203v-3.203h-3.203v3.203Zm7.608 7.809h3.404v-3.404h-3.404v3.404Zm7.007-7.408h4.205v-4.004h-4.205v4.004Zm-37.839-37.84h4.204v-4.204h-4.204v4.204Zm7.608 7.408h4.004v-4.004h-4.004v4.004Zm7.608 7.808h4.204v-4.204h-4.204v4.204Zm7.608 7.408h4.004v-4.004h-4.004v4.004Zm7.608 7.808h4.204v-4.204h-4.204v4.204Zm15.216 15.216h4.204v-4.204h-4.204v4.204Zm-23.425-37.64h5.005v-5.005h-5.005v5.005Zm15.216 15.016h5.005v-4.805h-5.005v4.805Zm-22.624-22.824h4.805v-4.805h-4.805v4.805Zm15.216 15.216h4.805v-4.805h-4.805v4.805Zm15.216 15.216h4.805v-4.805h-4.805v4.805Zm7.408 7.608h5.005v-5.005h-5.005v5.005Zm7.808 7.608h4.805v-4.805h-4.805v4.805Zm-23.224-37.439h5.606v-5.606h-5.606v5.606Zm15.216 15.216h5.606v-5.806h-5.606v5.806Zm-22.824-23.024h5.606v-5.606h-5.606v5.606Zm15.216 15.216h5.606v-5.606h-5.606v5.606Zm15.216 15.216h5.606v-5.606h-5.606v5.606Zm7.608 7.608h5.606v-5.606h-5.606v5.606Zm7.608 7.608h5.606v-5.606h-5.606v5.606Zm-22.824-37.84h5.606v-5.606h-5.606v5.606Zm15.216 15.216h5.606v-5.806h-5.606v5.806Zm22.623 22.624h5.806v-5.606h-5.806v5.606Zm-45.447-45.648h5.606v-5.606h-5.606v5.606Zm15.216 15.216h5.606v-5.606h-5.606v5.606Zm15.216 15.216h5.606v-5.606h-5.606v5.606Zm7.608 7.608h5.605v-5.606h-5.605v5.606Zm-15.216-30.232h5.606v-5.606h-5.606v5.606Zm37.839 37.84h5.606v-5.606h-5.606v5.606Zm-22.623-22.624h5.605v-5.806h-5.605v5.806Zm7.407 7.408h5.806v-5.606h-5.806v5.606Zm-30.231-30.432h5.606v-5.606h-5.606v5.606Zm15.216 15.216h5.606v-5.606h-5.606v5.606Zm22.824 22.824h5.605v-5.606h-5.605v5.606Zm-15.016-30.232h5.606v-5.606h-5.606v5.606Zm37.839 37.84h5.606v-5.606h-5.606v5.606Zm-22.623-22.624h5.606v-5.806h-5.606v5.806Zm7.407 7.408h5.807v-5.606h-5.807v5.606Zm-30.231-30.432h5.606v-5.606h-5.606v5.606Zm15.216 15.216h5.606v-5.606h-5.606v5.606Zm22.824 22.824h5.606v-5.606h-5.606v5.606Zm-151.96-165.174v-2.002h2.003v2.002h-2.003Zm-14.214-14.415v-2.002h2.002v2.002h-2.002Zm7.207 7.208v-2.002h2.002v2.002h-2.002Zm14.215 14.215v-2.002h2.002v2.002h-2.002Zm7.208 7.207v-2.002h2.002v2.002h-2.002Zm7.007 7.008v-2.002h2.002v2.002h-2.002Zm7.207 7.207v-2.002h2.003v2.002h-2.003Zm7.208 7.208v-2.002h2.002v2.002h-2.002Zm101.106 99.304h5.606v-5.606h-5.606v5.606Zm37.84 37.84h5.605v-5.606h-5.605v5.606Zm-22.624-22.624h5.606v-5.806h-5.606v5.806Zm7.408 7.408h5.806v-5.606h-5.806v5.606Zm-30.232-30.432h5.606v-5.606h-5.606v5.606Zm15.216 15.216h5.606v-5.606h-5.606v5.606Zm22.824 22.824h5.606v-5.606h-5.606v5.606ZM615.478 138.545v-2.803h2.803v2.803h-2.803Zm7.208 7.207v-2.803h2.803v2.803h-2.803Zm7.007 7.008v-2.803h2.803v2.803h-2.803Zm7.208 7.207v-2.803h2.803v2.803h-2.803Zm7.207 7.208v-2.803h2.803v2.803h-2.803Zm7.007 7.007v-2.803h2.803v2.803h-2.803Zm7.208 7.208v-2.803h2.803v2.803h-2.803Zm7.208 7.007v-2.803h2.803v2.803h-2.803Zm-50.453-63.667v-3.603h3.603v3.603h-3.603Zm14.215 14.215v-3.604h3.603v3.604h-3.603Zm7.207 7.208v-3.604h3.604v3.604H636.5Zm14.215 14.215v-3.604h3.604v3.604h-3.604Zm7.208 7.007v-3.403h3.603v3.403h-3.603Zm-35.638-35.637v-3.604h3.604v3.604h-3.604Zm21.423 21.422v-3.604h3.603v3.604h-3.603Zm21.422 21.423v-3.604h3.604v3.604h-3.604Zm-36.238-49.452v-4.405h4.405v4.405h-4.405Zm21.423 21.422v-4.404h4.404v4.404h-4.404Zm-35.638-35.837v-4.405h4.405v4.405h-4.405Zm7.208 7.207v-4.404h4.404v4.404h-4.404Zm14.215 14.215v-4.404h4.404v4.404H636.1Zm7.207 7.208v-4.405h4.405v4.405h-4.405Zm14.215 14.215v-4.405h4.405v4.405h-4.405Zm7.208 7.207v-4.404h4.404v4.404h-4.404Zm-50.453-63.867v-5.205h5.205V96.9h-5.205Zm7.207 7.208v-5.206h5.206v5.206h-5.206Zm7.208 7.007v-5.005h5.005v5.005h-5.005Zm7.007 7.208v-5.206h5.206v5.206h-5.206Zm7.208 7.207v-5.205h5.205v5.205h-5.205Zm7.007 7.008v-5.206h5.206v5.206h-5.206Zm7.208 7.207v-5.205h5.205v5.205h-5.205Zm7.207 7.007v-5.005h5.006v5.005h-5.006Zm-50.453-63.666V77.08h6.007v6.007h-6.007Zm21.423 21.422v-6.006h6.006v6.006h-6.006Zm7.207 7.008v-5.807h5.807v5.807h-5.807Zm21.423 21.422v-5.806h5.806v5.806h-5.806Zm-42.845-42.845v-5.806h6.006v5.806h-6.006Zm7.208 7.208v-6.007h5.806v6.007h-5.806Zm21.422 21.422v-6.006h5.806v6.006h-5.806Zm7.007 7.007v-5.806h6.007v5.806h-6.007Zm7.208-6.206v-6.607h6.206v6.607h-6.206Zm-50.453-50.453v-6.607h6.607v6.607h-6.607Zm7.208 7.208v-6.607h6.606v6.607h-6.606Zm7.207 7.207V76.88h6.607v6.607h-6.607Zm7.208 7.208v-6.607h6.607v6.607h-6.607Zm7.207 7.207v-6.607h6.607v6.607h-6.607Zm7.208 7.208v-6.607h6.607v6.607h-6.607Zm7.207 7.207v-6.607h6.607v6.607h-6.607Zm-36.238-57.46h6.807V48.25h-6.807v6.607Zm7.208 7.208h6.807v-6.607h-6.807v6.607Zm7.207 7.207h6.808v-6.607h-6.808v6.607Zm7.208 7.208h6.807v-6.607h-6.807v6.607Zm7.208 7.207h6.807V77.08h-6.807v6.607Zm7.207 7.208h6.807v-6.607h-6.807v6.607Zm7.008 14.615v-7.207h-7.208v-7.208h-7.208v-7.207h-7.207V76.68h-7.208v-7.208h-7.207v-7.207h-7.208v-7.208h-6.807V47.65h6.607v-6.607h-7.408V5.205l58.662 56.66v29.63h-7.608v6.608h7.207v7.407h-7.407Zm-42.645-65.468h6.006v-5.806h-6.006v5.806Zm-7.008-7.208h5.807v-5.806h-5.807v5.806Zm14.416 14.415h5.806v-5.806h-5.806v5.806Zm7.207 7.208h5.806V48.65h-5.806v5.806Zm7.208 7.207h5.806v-5.806h-5.806v5.806Zm7.207 7.208h5.806v-5.806h-5.806v5.806Zm7.208 7.207h5.806v-5.806h-5.806v5.806Zm7.207 7.208h6.007V77.48h-6.007v5.806Zm-43.045-58.06h5.206V20.42h-5.206v4.805ZM664.73 68.47h4.805v-4.805h-4.805v4.805Zm-50.453-50.453h5.005v-4.805h-5.005v4.806Zm14.415 14.416h5.005v-4.805h-5.005v4.805Zm7.208 7.207h5.005v-4.805H635.9v4.805Zm7.207 7.208h5.005v-4.805h-5.005v4.805Zm7.208 7.207h5.005v-4.805h-5.005v4.805Zm7.207 7.208h5.005v-4.805h-5.005v4.805ZM399.087 93.097V85.89h-7.208v-7.208h-7.207v-7.207h-7.208v-7.408h-7.407v-7.208h-7.208v-7.207h-7.207v-7.408h-7.008v-7.608h5.606V29.03h-5.606v-5.806h161.77l56.659 56.66H407.296v13.213h-8.209Zm-17.218 206.817h2.002v-2.002h-2.002v2.002Zm7.408 7.608h2.202v-2.202h-2.202v2.202Zm7.808 7.608h2.002v-2.002h-2.002v2.002Zm7.408 7.608h2.202v-2.202h-2.202v2.202Zm7.808 7.608h2.002v-2.002h-2.002v2.002Zm7.408 7.608h2.202v-2.202h-2.202v2.202Zm-45.448-45.648h2.002v-2.202h-2.002v2.202Zm14.816.2h2.802v-2.602h-2.802v2.602Zm15.216 15.216h2.802v-2.602h-2.802v2.602Zm15.215 15.216h2.803v-2.603h-2.803v2.603Zm15.216 15.216h2.803v-2.603h-2.803v2.603Zm-37.839-38.24h2.402v-2.402h-2.402v2.402Zm15.216 15.216h2.402v-2.402h-2.402v2.402Zm15.216 15.216h2.402v-2.403h-2.402v2.403Zm-23.225-37.439h3.404v-3.404h-3.404v3.404Zm7.608 7.407h3.204v-3.203H411.7v3.203Zm7.608 7.809h3.404v-3.404h-3.404v3.404Zm7.608 7.407h3.204v-3.203h-3.204v3.203Zm7.608 7.809h3.404v-3.404h-3.404v3.404Zm7.608 7.407h3.204v-3.203h-3.204v3.203Zm7.608 7.809h3.404v-3.404h-3.404v3.404Zm7.007-7.408h4.205v-4.004h-4.205v4.004Zm-37.839-37.84h4.204v-4.204h-4.204v4.204Zm7.608 7.408h4.004v-4.004h-4.004v4.004Zm7.608 7.808h4.204v-4.204h-4.204v4.204Zm7.608 7.408h4.004v-4.004h-4.004v4.004Zm7.608 7.808h4.204v-4.204h-4.204v4.204Zm15.216 15.216h4.204v-4.204h-4.204v4.204Zm-76.08 3.203-58.662-56.659H516.41l56.659 56.659H388.476Zm52.655-40.842h5.005v-5.006h-5.005v5.006Zm15.216 15.015h5.005v-4.805h-5.005v4.805Zm-22.624-22.824h4.805v-4.805h-4.805v4.805Zm15.216 15.216h4.805v-4.805h-4.805v4.805Zm15.216 15.216h4.805v-4.805h-4.805v4.805Zm7.408 7.608h5.005v-5.005h-5.005v5.005Zm7.808 7.608h4.805v-4.805h-4.805v4.805Zm-128.334-142.95v-2.202h2.202v2.202h-2.202Zm36.238 36.238v-2.202h2.202v2.202h-2.202Zm14.615 14.616v-2.203h2.202v2.203h-2.202Zm-21.623-21.823v-2.202h2.002v2.202h-2.002Zm-21.823-21.823v-2.202h2.203v2.202h-2.203Zm7.208 7.208v-2.203h2.202v2.203h-2.202Zm7.208 7.207v-2.202h2.202v2.202h-2.202Zm21.822 21.823v-2.202h2.203v2.202h-2.203Zm61.465 62.065h5.606v-5.606h-5.606v5.606Zm15.216 15.216h5.606v-5.806h-5.606v5.806Zm-22.824-23.024h5.606v-5.606h-5.606v5.606Zm15.216 15.216h5.606v-5.606h-5.606v5.606Zm15.216 15.216h5.606v-5.606h-5.606v5.606Zm7.608 7.608h5.606v-5.606h-5.606v5.606Zm7.608 7.608h5.606v-5.606h-5.606v5.606Zm-93.698-105.511v-5.205h4.805v5.205h-4.805Zm-36.439-36.438v-5.005h5.206v5.005h-5.206Zm-14.415-14.415v-5.206h5.206v5.206h-5.206Zm7.208 7.207v-5.205h5.205v5.205h-5.205Zm14.615 14.415v-5.005h5.005v5.005h-5.005Zm7.208 7.408v-5.205h5.205v5.205h-5.205Zm7.207 7.208v-5.206h5.206v5.206h-5.206Zm7.408 7.207v-5.005h5.005v5.005h-5.005Zm78.082 75.079h5.606v-5.606h-5.606v5.606Zm15.216 15.216h5.606v-5.806h-5.606v5.806Zm22.623 22.624h5.807v-5.606h-5.807v5.606Zm-45.447-45.648h5.606v-5.606h-5.606v5.606Zm15.216 15.216h5.606v-5.606h-5.606v5.606Zm15.216 15.216h5.606v-5.606h-5.606v5.606Zm7.608 7.608h5.606v-5.606h-5.606v5.606Zm-15.216-30.232h5.606v-5.606h-5.606v5.606Zm37.839 37.84h5.606v-5.606h-5.606v5.606Zm-22.623-22.624h5.606v-5.806h-5.606v5.806Zm7.407 7.408h5.807v-5.606h-5.807v5.606Zm-30.231-30.432h5.606v-5.606h-5.606v5.606Zm15.216 15.216h5.606v-5.606h-5.606v5.606Zm22.824 22.824h5.605v-5.606h-5.605v5.606ZM392.28 205.815h5.606v-5.605h-5.606v5.605Zm-29.031-29.03h5.606v-5.806h-5.606v5.806Zm7.208 7.208h5.806v-5.606h-5.806v5.606Zm-14.415-14.616h5.606v-5.606h-5.606v5.606Zm21.823 21.823h5.606v-5.606h-5.606v5.606Zm7.207 7.208h5.606v-5.606h-5.606v5.606Zm14.616 14.615h5.606v-5.606h-5.606v5.606Zm102.307 88.693h5.606v-5.606h-5.606v5.606Zm37.84 37.84h5.605v-5.606h-5.605v5.606Zm-22.624-22.624h5.606v-5.806h-5.606v5.806Zm7.408 7.408h5.806v-5.606h-5.806v5.606Zm-30.232-30.432h5.606v-5.606h-5.606v5.606Zm15.216 15.216h5.606v-5.606h-5.606v5.606Zm22.824 22.824h5.606v-5.606h-5.606v5.606ZM369.456 156.163h2.002v-2.002h-2.002v2.002Zm7.007 6.607h1.802v-1.802h-1.802v1.802Zm6.607 6.807h2.002v-2.002h-2.002v2.002Zm13.815 13.615h1.802v-1.802h-1.802v1.802Zm6.807 7.007h2.002v-2.002h-2.002v2.002Zm-13.614-13.814h2.002v-1.802h-2.002v1.802Zm20.421 20.421h2.002v-1.802h-2.002v1.802Zm7.007 7.007h1.802v-2.002h-1.802v2.002Zm99.905 97.903h5.606v-5.606h-5.606v5.606Zm37.84 37.84h5.606v-5.606h-5.606v5.606Zm-22.624-22.624h5.606v-5.806h-5.606v5.806Zm7.408 7.408h5.806v-5.606h-5.806v5.606Zm-30.232-30.432h5.606v-5.606h-5.606v5.606Zm15.216 15.216h5.606v-5.606h-5.606v5.606Zm22.824 22.824h5.606v-5.606h-5.606v5.606ZM382.87 156.163h2.403v-2.402h-2.403v2.402Zm48.05 47.65h2.203v-2.202h-2.203v2.202Zm-41.043-41.043h2.403v-2.202h-2.403v2.202Zm6.808 6.807h2.202v-2.402h-2.202v2.402Zm6.807 6.808h2.402v-2.203h-2.402v2.203Zm6.807 6.807h2.402v-2.203h-2.402v2.203Zm7.007 7.007h2.202v-2.402h-2.202v2.402Zm6.607 6.607h2.403v-2.202h-2.403v2.202Zm-27.429-40.242h3.003v-3.003h-3.003v3.003Zm6.807 6.807h3.204v-3.003h-3.204v3.003Zm6.808 6.807h3.003v-3.203h-3.003v3.203Zm13.614 13.614h3.203v-3.003h-3.203v3.003Zm6.807 6.808h3.003v-3.204h-3.003v3.204Zm13.614 13.614h3.204v-3.003h-3.204v3.003Zm-27.228-27.429h3.003v-3.003h-3.003v3.003Zm20.621 20.622h3.003v-3.003h-3.003v3.003Zm-27.829-40.443h3.804v-3.804h-3.804v3.804Zm20.422 20.221h3.804v-3.603h-3.804v3.603ZM443.734 191h4.004v-3.804h-4.004V191Zm7.007 6.807h3.804v-3.604h-3.804v3.604Zm6.807 6.807h3.804v-3.604h-3.804v3.604Zm-40.842-40.843h3.803v-3.804h-3.803v3.804Zm6.606 6.808h4.005v-4.005h-4.005v4.005Zm13.815 13.614h3.804v-3.804h-3.804v3.804Zm-38.04 36.438v-7.208h-7.208v-7.207h-7.207v-7.208h-7.208v-7.407h-7.407v-7.208h-7.208v-7.208h-7.207v-7.407h-7.008v-7.608h5.606v-5.606h-5.606v-6.006h134.942l56.659 56.659H407.296v13.414h-8.209Zm23.825-63.467h4.605v-4.204h-4.605v4.204Zm7.007 6.808h4.405v-4.205h-4.405v4.205Zm13.414 13.614h4.605v-4.405h-4.605v4.405Zm7.008 6.807h4.404v-4.204h-4.404v4.204Zm13.614 13.614h4.405v-4.204h-4.405v4.204Zm-27.229-27.228h4.405v-4.405h-4.405v4.405Zm34.236 34.236h4.405v-4.405h-4.405v4.405ZM457.348 191.4h4.405v-4.604h-4.405v4.604Zm-20.822-33.835h5.006v-5.005h-5.006v5.005Zm6.807 6.807h5.006v-5.005h-5.006v5.005Zm6.808 6.807h5.005v-5.005h-5.005v5.005Zm13.614 13.614h5.005v-5.005h-5.005v5.005Zm20.621 20.622h5.006v-5.005h-5.006v5.005Zm-27.228-27.429h5.005v-5.005h-5.005v5.005Zm13.614 13.615h5.005v-5.006h-5.005v5.006Zm6.807 6.807h5.006v-5.006h-5.006v5.006ZM351.037 68.672v-2.203h2.202v2.203h-2.202Zm36.238 36.238v-2.203h2.202v2.203h-2.202Zm14.615 14.615v-2.202h2.202v2.202h-2.202Zm-21.623-21.823V95.5h2.002v2.202h-2.002ZM358.444 75.88v-2.202h2.203v2.202h-2.203Zm7.208 7.208v-2.203h2.202v2.203h-2.202Zm7.208 7.207v-2.202h2.202v2.202h-2.202Zm21.822 21.823v-2.202h2.203v2.202h-2.203Zm55.058 45.848h5.806v-5.806h-5.806v5.806Zm13.614 13.414h5.806v-5.605h-5.806v5.605Zm20.622 20.622h5.806v-5.606h-5.806v5.606Zm13.814 13.814h5.606v-5.806h-5.606v5.806Zm-41.043-41.043h5.807v-5.806h-5.807v5.806Zm13.615 13.615h5.806v-5.806h-5.806v5.806Zm6.807 6.807h5.806v-5.806h-5.806v5.806Zm13.614 13.614h5.806v-5.806h-5.806v5.806Zm-90.294-92.297v-5.205h4.805v5.205h-4.805ZM364.05 70.073v-5.005h5.206v5.005h-5.206Zm-14.415-14.415v-5.205h5.206v5.205h-5.206Zm7.208 7.208V57.66h5.205v5.206h-5.205Zm14.615 14.415v-5.006h5.005v5.006h-5.005Zm7.208 7.407v-5.205h5.205v5.206h-5.205Zm7.207 7.208v-5.205h5.206v5.205h-5.206Zm7.408 7.208v-5.006h5.005v5.006h-5.005Zm69.673 59.262h6.607v-6.607h-6.607v6.607Zm7.007 6.807h6.607v-6.607h-6.607v6.607Zm6.807 6.607h6.407v-6.407h-6.407v6.407Zm6.808 7.007h6.607v-6.607h-6.607v6.607Zm6.807 6.807h6.607v-6.607h-6.607v6.607Zm7.007 6.807h6.407v-6.406h-6.407v6.406Zm6.607 6.808h6.607v-6.607h-6.607v6.607Zm7.007 7.007h6.607v-6.607h-6.607v6.607ZM392.28 78.282h5.606v-5.606h-5.606v5.606Zm-29.031-29.03h5.606v-5.807h-5.606v5.806Zm7.208 7.207h5.806v-5.606h-5.806v5.606Zm-14.415-14.615h5.606v-5.606h-5.606v5.606Zm21.823 21.822h5.606v-5.605h-5.606v5.605Zm7.207 7.208h5.606v-5.606h-5.606v5.606Zm14.616 14.615h5.606v-5.606h-5.606v5.606Zm77.08 72.877h6.407v-6.607h-6.407v6.607Zm6.808 6.807h6.607v-6.607h-6.607v6.607Zm20.421 20.421h6.607v-6.607h-6.607v6.607Zm20.622 20.622h6.607v-6.607h-6.607v6.607Zm-34.236-34.436h6.607v-6.407h-6.607v6.407Zm7.007 7.007h6.407v-6.607h-6.407v6.607Zm13.614 13.614h6.607v-6.406h-6.607v6.406Zm6.807 6.808h6.407v-6.607h-6.407v6.607ZM368.855 28.83h2.002v-2.002h-2.002v2.002Zm27.229 27.028h2.002v-1.802h-2.002v1.802Zm-20.221-20.421h1.802v-1.802h-1.802v1.802Zm6.607 6.807h2.002v-2.002h-2.002v2.002Zm7.007 6.807h1.802V47.25h-1.802v1.802Zm13.614 13.815h2.002v-2.002h-2.002v2.002Zm6.807 6.607h1.802V67.67h-1.802v1.802Zm6.808 7.007h2.002v-2.002h-2.002v2.002Zm-34.437-47.65h2.403v-2.402h-2.403v2.402Zm7.008 6.607h2.202v-2.202h-2.202v2.202Zm6.607 6.807h2.402v-2.402h-2.402v2.402Zm13.814 13.614h2.202v-2.202h-2.202v2.202Zm6.807 7.008h2.403v-2.403h-2.403v2.403ZM402.891 49.05h2.403V46.85h-2.403v2.202Zm20.421 20.422h2.403V67.27h-2.403v2.203Zm7.008 7.007h2.202v-2.403h-2.202v2.403Zm-34.436-47.25h3.003v-3.003h-3.003v3.003Zm27.228 27.229h3.003v-3.003h-3.003v3.003Zm20.422 20.421h3.003v-3.003h-3.003v3.003Zm-40.843-40.842h3.203v-3.004h-3.203v3.004Zm6.807 6.807h3.003V39.64h-3.003v3.204Zm6.607 6.607h3.203v-3.003h-3.203v3.003Zm13.814 13.814h3.004v-3.203h-3.004v3.203Zm6.807 6.807h3.204V67.07h-3.204v3.003Zm-27.628-40.442h3.804v-3.804h-3.804v3.804Zm34.035 34.035h3.804v-3.803h-3.804v3.803Zm13.614 13.615h4.005v-3.604h-4.005v3.604Zm-40.842-40.843h4.004v-3.804h-4.004v3.804Zm6.807 6.807h3.804v-4.004h-3.804v4.004Zm6.807 6.607h3.804v-3.604h-3.804v3.604Zm6.807 7.007h4.004v-3.804h-4.004v3.804Zm13.815 13.615h3.804V66.87h-3.804v3.604Zm-27.83-40.643h4.405v-4.204h-4.405v4.204Zm7.008 6.807h4.404v-4.204h-4.404v4.204Zm6.607 6.807h4.604v-4.404h-4.604v4.404Zm6.807 6.807h4.605v-4.404h-4.605v4.404Zm7.007 6.808h4.405v-4.205h-4.405v4.205Zm6.807 7.007h4.405v-4.605h-4.405v4.605Zm6.807 6.607h4.405v-4.205h-4.405v4.205Zm7.008 7.007h4.404v-4.404h-4.404v4.404Zm-34.436-47.45h5.005v-5.005h-5.005v5.006Zm6.807 6.808h5.005v-5.006h-5.005v5.006Zm6.807 6.807h5.005V38.84h-5.005v5.005Zm6.807 6.807h5.005v-5.005h-5.005v5.005Zm6.807 6.807h5.005v-5.005h-5.005v5.005Zm13.614 13.614h5.006V66.07h-5.006v5.005Zm7.008 7.008h5.005v-5.006h-5.005v5.006Zm-13.614-13.815h5.005v-5.005h-5.005v5.005Zm-21.023-33.635h5.807v-5.806h-5.807v5.806Zm6.808 6.807h5.806v-5.806h-5.806v5.806Zm20.421 20.421h5.806v-5.806h-5.806v5.806Zm20.622 20.622h5.806v-5.806h-5.806v5.806Zm-34.236-34.436h5.806V38.44h-5.806v5.606Zm20.621 20.622h5.806v-5.606h-5.806v5.606Zm-13.614-13.615h5.806v-5.806h-5.806v5.806Zm20.422 20.422h5.806v-5.806h-5.806v5.806Zm-27.83-40.443h6.607v-6.607h-6.607v6.607Zm13.615 13.414h6.607V38.04h-6.607v6.406Zm13.814 13.815h6.407v-6.607h-6.407v6.607Zm6.807 6.807h6.607v-6.407h-6.607v6.407Zm13.815 13.814h6.406v-6.607h-6.406v6.607ZM469.361 37.84h6.607v-6.606h-6.607v6.606Zm13.614 13.615h6.607v-6.607h-6.607v6.607Zm20.421 20.421h6.607v-6.607h-6.607v6.607Zm-27.428-40.843h6.607v-6.607h-6.607v6.607Zm7.007 6.807h6.607v-6.606h-6.607v6.606Zm6.807 6.607h6.407V38.04h-6.407v6.406Zm6.807 7.008h6.607v-6.607h-6.607v6.607Zm6.807 6.807h6.607v-6.607h-6.607v6.607Zm7.008 6.807h6.406v-6.407h-6.406v6.407Zm6.607 6.807h6.607v-6.607h-6.607v6.607Zm7.007 7.007h6.607v-6.607h-6.607v6.607Zm-34.436-47.85h6.407v-6.607h-6.407v6.607Zm6.807 6.807h6.607v-6.606h-6.607v6.606Zm41.043 41.043h6.607v-6.607h-6.607v6.607Zm-34.236-34.436h6.607V38.04h-6.607v6.406Zm7.007 7.008h6.407v-6.607h-6.407v6.607Zm13.615 13.614h6.607v-6.407h-6.607v6.407Zm6.807 6.807h6.407v-6.607h-6.407v6.607Zm-13.614-13.614h6.607v-6.607h-6.607v6.607Zm-13.615-27.229h6.607v-6.607h-6.607v6.607Zm47.85 47.85h6.607v-6.607h-6.607v6.607ZM510.404 37.84h6.406v-6.606h-6.406v6.606Zm6.607 6.607h6.607V38.04h-6.607v6.406Zm20.621 20.622h6.607v-6.407h-6.607v6.407Zm-13.614-13.614h6.607v-6.607h-6.607v6.607Zm20.421 20.421h6.607v-6.607h-6.607v6.607Zm-13.414-13.614h6.407v-6.607h-6.407v6.607ZM81.54 242.254v-6.808h6.608v-7.207H80.74v6.407h-6.407v-6.607h6.207v-7.208h-7.008v6.407h-6.607v-6.607h6.407v-7.007h-7.207v6.206h-6.607v-6.407h6.406v-7.207h-7.207v6.407H52.31v-6.607h6.207v-7.208h-7.008v6.407h-6.807v-6.607h6.407V191.4H43.9v-7.207h-7.408v-32.434h174.583v56.659H95.155l-.2-.4.2 27.629h-6.807v6.607H81.54Zm-5.205 99.904-58.661-56.659h18.82l58.661 56.659h-18.82Zm-7.207-87.491v-2.003h2.002v2.003h-2.002Zm-29.631-29.631v-2.003h2.402v2.003h-2.402Zm15.015 14.815v-2.002h2.002v2.002h-2.002Zm7.408 7.408v-2.002h2.002v2.002H61.92Zm14.615 14.615v-2.002h2.003v2.002h-2.002Zm-29.43-29.431v-2.202h2.002v2.202h-2.002Zm36.838 36.839v-2.202h2.002v2.202h-2.002Zm7.408 7.208v-2.003h2.202v2.003h-2.202Zm-52.855-64.869v-4.404H42.9v4.404h-4.404Zm7.407 7.208v-4.204h4.405v4.204h-4.405Zm29.431 29.431v-4.205h4.405v4.205h-4.405Zm-7.407-7.208v-4.605h4.604v4.605h-4.605Zm22.223 22.023v-4.404h4.404v4.404H90.15ZM53.51 226.237v-4.405h4.205v4.405H53.51Zm7.208 7.408v-4.605h4.405v4.605h-4.405Zm22.023 22.023v-4.405h4.605v4.405h-4.605Zm6.407-6.207v-6.407h6.006v6.407h-6.006Zm-51.654-51.654V191.4H43.9v6.407h-6.406Zm0-22.223H42.9v-5.406h-5.405v5.406Zm7.407 7.407h5.406v-5.405h-5.406v5.405Zm14.816 14.816h5.406v-5.406h-5.406v5.406Zm14.815 14.615h5.206v-5.205h-5.206v5.205Zm7.208 7.208h5.406v-5.005H81.74v5.005Zm-14.615-14.615h5.405v-5.206h-5.405v5.206Zm22.223 22.023h5.205v-5.006H89.35v5.006ZM52.51 190.199h5.206v-5.205H52.51v5.205Zm30.232 14.015h3.404v-3.204h-3.404v3.204Zm-7.408-7.408h3.604v-3.404h-3.604v3.404Zm-36.838-37.039h3.403v-3.403h-3.403v3.403Zm22.223 22.223h3.604v-3.203h-3.604v3.203Zm29.43 29.631h3.605v-3.603H90.15v3.603Zm-44.246-44.646h3.404v-3.204h-3.404v3.204Zm7.608 7.608h3.404v-3.404H53.51v3.404Zm14.616 14.615h3.403v-3.404h-3.403v3.404Zm1-14.615h3.204v-3.404h-3.203v3.404Zm7.409 7.407h3.403v-3.203h-3.403v3.203Zm-22.224-22.223h3.404v-3.403h-3.404v3.403Zm7.408 7.408h3.404v-3.404H61.72v3.404Zm37.239 37.039h3.404v-3.204h-3.404v3.204Zm-15.016-15.016h3.404v-3.404h-3.404v3.404Zm7.608 7.608h3.404v-3.404H91.55v3.404Zm-.6-14.415h4.805v-4.805H90.95v4.805Zm-22.224-22.424h4.805v-4.604h-4.805v4.604Zm7.408 7.408h4.805v-4.605h-4.805v4.605Zm7.408 7.608h5.005v-4.805h-5.005v4.805Zm22.423 22.223h4.805v-4.604h-4.805v4.604Zm-7.407-7.407h4.805v-4.805h-4.805v4.805Zm15.015 15.015h4.805v-4.805h-4.805v4.805ZM38.896 124.73v-3.603H42.5v3.603h-3.604Zm7.208 7.008v-3.604h3.603v3.604h-3.603Zm60.063 50.653h4.805v-4.805h-4.805v4.805Zm-22.224-22.424h4.805v-4.604h-4.805v4.604Zm7.408 7.408h4.805v-4.605h-4.805v4.605Zm7.408 7.608h5.005v-4.805h-5.005v4.805Zm22.423 22.223h4.805v-4.604h-4.805v4.604Zm-7.407-7.407h4.805v-4.805h-4.805v4.805Zm15.015 15.015h4.805v-4.805h-4.805v4.805Zm-76.08-79.683v-4.405h4.405v4.405h-4.404Zm-14.214-14.415v-4.405H42.9v4.405h-4.404Zm7.207 7.207v-4.404h4.405v4.404h-4.405Zm14.215 14.215v-4.404h4.405v4.404h-4.405Zm209.82 210.02-58.662-56.659h18.82l58.662 56.659h-18.82ZM121.182 182.391h4.805v-4.805h-4.805v4.805Zm-22.223-22.424h4.805v-4.604h-4.805v4.604Zm7.408 7.408h4.805v-4.605h-4.805v4.605Zm7.408 7.608h5.005v-4.805h-5.005v4.805Zm22.423 22.223h4.805v-4.604h-4.805v4.604Zm-7.408-7.407h4.805v-4.805h-4.805v4.805Zm15.016 15.015h4.805v-4.805h-4.805v4.805ZM38.096 96.901v-5.205H43.3V96.9h-5.206Zm7.207 7.208v-5.206h5.205v5.206h-5.205Zm7.207 7.007v-5.005h5.006v5.005H52.51Zm7.008 7.208v-5.206h5.205v5.206h-5.205Zm7.207 7.207v-5.205h5.206v5.205h-5.206Zm7.008 7.008v-5.206h5.205v5.206h-5.205Zm62.465 49.852h4.805v-4.805h-4.805v4.805Zm-22.223-22.424h4.805v-4.604h-4.805v4.604Zm7.407 7.408h4.806v-4.605h-4.806v4.605Zm7.408 7.608h5.005v-4.805h-5.005v4.805Zm22.424 22.223h4.805v-4.604h-4.805v4.604Zm-7.408-7.407h4.805v-4.805h-4.805v4.805Zm15.016 15.015h4.805v-4.805h-4.805v4.805ZM37.695 83.087V77.08H43.7v6.007h-6.006Zm21.422 21.422v-6.006h6.007v6.006h-6.007Zm7.208 7.008v-5.807h5.806v5.807h-5.806Zm21.422 21.422v-5.806h5.806v5.806h-5.806ZM44.902 90.094v-5.806h6.007v5.806h-6.007Zm7.208 7.208v-6.007h5.806v6.007H52.11Zm21.422 21.422v-6.006h5.806v6.006h-5.806Zm7.008 7.007v-5.806h6.006v5.806H80.54Zm70.674 56.66h4.805v-4.805h-4.805v4.805Zm-22.224-22.424h4.805v-4.604h-4.805v4.604Zm7.408 7.408h4.805v-4.605h-4.805v4.605Zm7.408 7.608h5.005v-4.805h-5.005v4.805Zm22.423 22.223h4.806v-4.604h-4.806v4.604Zm-7.407-7.407h4.805v-4.805h-4.805v4.805Zm15.015 15.015h4.805v-4.805h-4.805v4.805Zm-86.09-85.289v-6.607h6.207v6.607h-6.207ZM37.294 69.072v-6.607h6.607v6.607h-6.607Zm7.208 7.208v-6.607h6.607v6.607h-6.607Zm7.207 7.207V76.88h6.607v6.607H51.71Zm7.208 7.208v-6.607h6.607v6.607h-6.607Zm7.208 7.207v-6.607h6.606v6.607h-6.606Zm7.207 7.208v-6.607h6.607v6.607h-6.607Zm7.208 7.207v-6.607h6.607v6.607H80.54Zm85.689 70.074h4.806v-4.805h-4.806v4.805Zm-22.223-22.424h4.805v-4.604h-4.805v4.604Zm7.408 7.408h4.805v-4.605h-4.805v4.605Zm7.408 7.608h5.005v-4.805h-5.005v4.805Zm22.423 22.223h4.805v-4.604h-4.805v4.604Zm-7.408-7.407h4.805v-4.805h-4.805v4.805Zm15.016 15.015h4.805v-4.805h-4.805v4.805ZM44.302 54.857h6.807V48.25h-6.807v6.607Zm7.207 7.208h6.807v-6.607H51.51v6.607Zm7.208 7.207h6.807v-6.607h-6.807v6.607Zm7.207 7.208h6.807v-6.607h-6.807v6.607Zm7.208 7.207h6.807V77.08h-6.807v6.607Zm7.207 7.208h6.808v-6.607h-6.808v6.607Zm100.906 91.496h4.805v-4.805h-4.805v4.805Zm-22.223-22.424h4.805v-4.604h-4.805v4.604Zm7.408 7.408h4.805v-4.605h-4.805v4.605Zm7.407 7.608h5.006v-4.805h-5.006v4.805Zm22.424 22.223h4.805v-4.604h-4.805v4.604Zm-7.408-7.407h4.805v-4.805h-4.805v4.805Zm15.016 15.015h4.805v-4.805h-4.805v4.805ZM87.347 105.51v-7.207h-7.208v-7.208h-7.207v-7.207h-7.208V76.68h-7.207v-7.208h-7.208v-7.207h-7.207v-7.208h-6.808V47.65h6.607v-6.607h-7.408V5.205l58.662 56.66v29.63h-7.608v6.608h7.208v7.407h-7.408ZM44.702 40.042h6.006v-5.806h-6.006v5.806Zm-7.007-7.208H43.5v-5.806h-5.806v5.806ZM52.11 47.249h5.806v-5.806H52.11v5.806Zm7.208 7.208h5.806V48.65h-5.806v5.806Zm7.207 7.207h5.806v-5.806h-5.806v5.806Zm7.208 7.208h5.806v-5.806h-5.806v5.806Zm7.207 7.207h5.806v-5.806H80.94v5.806Zm7.208 7.208h6.006V77.48h-6.006v5.806ZM196.26 182.39h4.805v-4.805h-4.805v4.805Zm-22.223-22.424h4.805v-4.604h-4.805v4.604Zm7.407 7.408h4.805v-4.605h-4.805v4.605Zm7.408 7.608h5.005v-4.805h-5.005v4.805Zm15.016 14.816h4.805v-4.805h-4.805v4.805ZM45.103 25.226h5.205v-4.805h-5.205v4.805Zm43.445 43.245h4.805v-4.805h-4.805v4.805ZM38.095 18.018H43.1v-4.805h-5.005v4.806ZM52.51 32.434h5.006v-4.805H52.51v4.805Zm7.208 7.207h5.005v-4.805h-5.005v4.805Zm7.207 7.208h5.006v-4.805h-5.006v4.805Zm7.208 7.207h5.005v-4.805h-5.005v4.805Zm7.208 7.208h5.005v-4.805H81.34v4.805Zm107.712 98.703h4.805v-4.604h-4.805v4.604Zm7.408 7.408h4.805v-4.605h-4.805v4.605Zm7.408 7.608h5.005v-4.805h-5.005v4.805Zm.2-15.016h4.805v-4.604h-4.805v4.604Zm43.245 6.807v-2.002h2.003v2.002h-2.003ZM233.1 152.359v-2.002h2.002v2.002H233.1Zm7.207 7.208v-2.002h2.002v2.002h-2.002Zm14.215 14.215v-2.002h2.002v2.002h-2.002Zm7.208 7.207v-2.002h2.002v2.002h-2.002Zm7.007 7.008v-2.002h2.002v2.002h-2.002Zm7.207 7.207v-2.002h2.003v2.002h-2.003Zm7.208 7.208v-2.002h2.002v2.002h-2.002Zm-50.453-63.867v-2.803h2.803v2.803h-2.803Zm7.208 7.207v-2.803h2.803v2.803h-2.803Zm7.007 7.008v-2.803h2.803v2.803h-2.803Zm7.208 7.207v-2.803h2.802v2.803h-2.802Zm7.207 7.208v-2.803h2.803v2.803h-2.803Zm7.007 7.007v-2.803h2.803v2.803h-2.803Zm7.208 7.208v-2.803h2.803v2.803h-2.803Zm7.208 7.007v-2.803h2.803v2.803h-2.803Zm-50.453-63.667v-3.603h3.603v3.603h-3.603Zm14.215 14.215v-3.604h3.603v3.604h-3.603Zm7.207 7.208v-3.604h3.604v3.604h-3.604Zm14.215 14.215v-3.604h3.604v3.604h-3.604Zm7.208 7.007v-3.403h3.603v3.403h-3.603Zm-35.638-35.637v-3.604h3.604v3.604h-3.604Zm21.423 21.422v-3.604h3.603v3.604h-3.603Zm21.422 21.423v-3.604h3.604v3.604h-3.604Zm-36.238-49.452v-4.405h4.405v4.405h-4.405Zm21.423 21.422v-4.404h4.404v4.404h-4.404Zm-35.638-35.837v-4.405h4.405v4.405h-4.405Zm7.208 7.207v-4.404h4.404v4.404h-4.404Zm14.215 14.215v-4.404h4.404v4.404h-4.404Zm7.207 7.208v-4.405h4.405v4.405h-4.405Zm14.215 14.215v-4.405h4.405v4.405h-4.405Zm7.208 7.207v-4.404h4.404v4.404h-4.404Zm-50.453-63.867v-5.205h5.205V96.9h-5.205Zm7.207 7.208v-5.206h5.206v5.206h-5.206Zm7.208 7.007v-5.005h5.005v5.005h-5.005Zm7.007 7.208v-5.206h5.206v5.206h-5.206Zm7.208 7.207v-5.205h5.205v5.205h-5.205Zm7.007 7.008v-5.206h5.206v5.206h-5.206Zm7.208 7.207v-5.205h5.205v5.205h-5.205Zm7.207 7.007v-5.005h5.006v5.005h-5.006Zm-50.453-63.666V77.08h6.007v6.007h-6.007Zm21.423 21.422v-6.006h6.006v6.006h-6.006Zm7.207 7.008v-5.807h5.806v5.807h-5.806Zm21.423 21.422v-5.806h5.806v5.806h-5.806Zm-42.845-42.845v-5.806h6.006v5.806h-6.006Zm7.208 7.208v-6.007h5.806v6.007h-5.806Zm21.422 21.422v-6.006h5.806v6.006h-5.806Zm7.007 7.007v-5.806h6.007v5.806h-6.007Zm7.208-6.206v-6.607h6.206v6.607h-6.206Zm-50.453-50.453v-6.607h6.607v6.607h-6.607Zm7.208 7.208v-6.607h6.606v6.607h-6.606Zm7.207 7.207V76.88h6.607v6.607h-6.607Zm7.208 7.208v-6.607h6.607v6.607h-6.607Zm7.207 7.207v-6.607h6.607v6.607h-6.607Zm7.208 7.208v-6.607h6.607v6.607h-6.607Zm7.207 7.207v-6.607h6.607v6.607h-6.607Zm-36.238-57.46h6.807V48.25h-6.807v6.607Zm7.208 7.208h6.807v-6.607h-6.807v6.607Zm7.207 7.207h6.808v-6.607h-6.808v6.607Zm7.208 7.208h6.807v-6.607h-6.807v6.607Zm7.208 7.207h6.807V77.08h-6.807v6.607Zm7.207 7.208h6.807v-6.607h-6.807v6.607Zm7.007 14.615v-7.207h-7.207v-7.208h-7.208v-7.207h-7.207V76.68h-7.208v-7.208h-7.207v-7.207h-7.208v-7.208h-6.807V47.65h6.607v-6.607h-7.408V5.205l58.662 56.66v29.63h-7.608v6.608h7.207v7.407h-7.408Zm-42.644-65.468h6.006v-5.806h-6.006v5.806Zm-7.008-7.208h5.807v-5.806h-5.807v5.806Zm14.416 14.415h5.806v-5.806h-5.806v5.806Zm7.207 7.208h5.806V48.65h-5.806v5.806Zm7.208 7.207h5.806v-5.806h-5.806v5.806Zm7.207 7.208h5.806v-5.806h-5.806v5.806Zm7.208 7.207h5.806v-5.806h-5.806v5.806Zm7.207 7.208h6.007V77.48h-6.007v5.806Zm-43.045-58.06h5.206V20.42h-5.206v4.805Zm43.446 43.244h4.805v-4.805h-4.805v4.805Zm-50.453-50.453h5.005v-4.805h-5.005v4.806Zm14.415 14.416h5.005v-4.805h-5.005v4.805Zm7.207 7.207h5.006v-4.805h-5.006v4.805Zm7.208 7.208h5.005v-4.805h-5.005v4.805Zm7.208 7.207h5.005v-4.805h-5.005v4.805Zm7.207 7.208h5.005v-4.805h-5.005v4.805Z"/>
</svg>